<svg xmlns="http://www.w3.org/2000/svg" viewBox="0 0 1200 630">
  <rect width="1200" height="630" fill="#F6F7F2"/>
  <g opacity=".5" fill="#D9DFD9">
    <circle cx="60" cy="60" r="2"/><circle cx="110" cy="60" r="2"/><circle cx="160" cy="60" r="2"/><circle cx="210" cy="60" r="2"/><circle cx="260" cy="60" r="2"/>
    <circle cx="940" cy="570" r="2"/><circle cx="990" cy="570" r="2"/><circle cx="1040" cy="570" r="2"/><circle cx="1090" cy="570" r="2"/><circle cx="1140" cy="570" r="2"/>
  </g>
  <g transform="translate(80 72)">
    <rect width="70" height="70" rx="16" fill="#5B5CE2"/>
    <path d="M20 16v38M50 16v38M20 26h12a8 8 0 0 1 8 8 8 8 0 0 0 8 8h2" fill="none" stroke="white" stroke-width="4" stroke-linecap="round"/>
    <circle cx="20" cy="16" r="4" fill="#C8F2DD"/><circle cx="20" cy="54" r="4" fill="#C8F2DD"/><circle cx="50" cy="16" r="4" fill="#C8F2DD"/><circle cx="50" cy="54" r="4" fill="#C8F2DD"/>
  </g>
  <text x="80" y="250" fill="#17201D" font-family="Arial, sans-serif" font-size="72" font-weight="700" letter-spacing="-3">Agent Hooks Protocol</text>
  <text x="80" y="345" fill="#5B5CE2" font-family="Arial, sans-serif" font-size="62" font-weight="700" letter-spacing="-2">Runtime control, without lock-in.</text>
  <text x="80" y="430" fill="#5F6964" font-family="Arial, sans-serif" font-size="29">An open protocol for interoperable agent runtime hooks.</text>
  <rect x="80" y="500" width="245" height="54" rx="27" fill="#C8F2DD"/>
  <text x="112" y="535" fill="#176640" font-family="monospace" font-size="20">V0.1 WORKING DRAFT</text>
</svg>
